<svg width="36" height="36" viewBox="0 0 36 36" fill="none" xmlns="http://www.w3.org/2000/svg">
<g opacity="0.88">
<path d="M24.4728 16.2818C24.0438 16.2816 23.6216 16.1734 23.2454 15.9672C22.8691 15.7609 22.5508 15.4633 22.3199 15.1016C22.0891 15.4634 21.7709 15.7611 21.3946 15.9674C21.0184 16.1737 20.5962 16.2818 20.1671 16.2818C19.738 16.2818 19.3158 16.1737 18.9395 15.9674C18.5632 15.7611 18.245 15.4634 18.0142 15.1016C17.7835 15.4634 17.4652 15.7611 17.089 15.9674C16.7127 16.1737 16.2905 16.2818 15.8614 16.2818C15.4323 16.2818 15.0101 16.1737 14.6339 15.9674C14.2576 15.7611 13.9394 15.4634 13.7086 15.1016C13.4112 15.5675 12.9708 15.9245 12.4534 16.1188C11.936 16.3132 11.3695 16.3344 10.839 16.1795C10.3084 16.0245 9.84247 15.7017 9.51101 15.2594C9.17954 14.8171 9.00046 14.2793 9.00065 13.7265C9.00065 13.6199 9.04303 13.5175 9.11847 13.4421C9.19391 13.3667 9.29623 13.3243 9.40292 13.3243C9.50961 13.3243 9.61193 13.3667 9.68737 13.4421C9.76281 13.5175 9.80519 13.6199 9.80519 13.7265C9.80253 13.9581 9.84585 14.1879 9.93264 14.4026C10.0194 14.6174 10.1479 14.8127 10.3108 14.9774C10.4736 15.1421 10.6675 15.2729 10.8812 15.3621C11.0949 15.4513 11.3242 15.4973 11.5557 15.4973C11.7873 15.4973 12.0166 15.4513 12.2303 15.3621C12.444 15.2729 12.6379 15.1421 12.8007 14.9774C12.9636 14.8127 13.0921 14.6174 13.1789 14.4026C13.2656 14.1879 13.309 13.9581 13.3063 13.7265C13.3063 13.6199 13.3487 13.5175 13.4241 13.4421C13.4996 13.3667 13.6019 13.3243 13.7086 13.3243C13.8153 13.3243 13.9176 13.3667 13.993 13.4421C14.0685 13.5175 14.1108 13.6199 14.1108 13.7265C14.1082 13.9581 14.1515 14.1879 14.2383 14.4026C14.3251 14.6174 14.4536 14.8127 14.6164 14.9774C14.7792 15.1421 14.9731 15.2729 15.1868 15.3621C15.4005 15.4513 15.6298 15.4973 15.8614 15.4973C16.093 15.4973 16.3223 15.4513 16.536 15.3621C16.7497 15.2729 16.9436 15.1421 17.1064 14.9774C17.2692 14.8127 17.3977 14.6174 17.4845 14.4026C17.5713 14.1879 17.6146 13.9581 17.612 13.7265C17.612 13.6199 17.6544 13.5175 17.7298 13.4421C17.8052 13.3667 17.9075 13.3243 18.0142 13.3243C18.1209 13.3243 18.2232 13.3667 18.2987 13.4421C18.3741 13.5175 18.4165 13.6199 18.4165 13.7265C18.4139 13.9581 18.4572 14.1879 18.544 14.4026C18.6307 14.6174 18.7593 14.8127 18.9221 14.9774C19.0849 15.1421 19.2788 15.2729 19.4925 15.3621C19.7062 15.4513 19.9355 15.4973 20.1671 15.4973C20.3987 15.4973 20.6279 15.4513 20.8417 15.3621C21.0554 15.2729 21.2492 15.1421 21.4121 14.9774C21.5749 14.8127 21.7034 14.6174 21.7902 14.4026C21.877 14.1879 21.9203 13.9581 21.9176 13.7265C21.9176 13.6199 21.96 13.5175 22.0355 13.4421C22.1109 13.3667 22.2132 13.3243 22.3199 13.3243C22.4266 13.3243 22.5289 13.3667 22.6043 13.4421C22.6798 13.5175 22.7222 13.6199 22.7222 13.7265C22.7195 13.9581 22.7628 14.1879 22.8496 14.4026C22.9364 14.6174 23.0649 14.8127 23.2277 14.9774C23.3906 15.1421 23.5844 15.2729 23.7981 15.3621C24.0119 15.4513 24.2411 15.4973 24.4727 15.4973C24.7043 15.4973 24.9336 15.4513 25.1473 15.3621C25.361 15.2729 25.5549 15.1421 25.7177 14.9774C25.8805 14.8127 26.0091 14.6174 26.0958 14.4026C26.1826 14.1879 26.2259 13.9581 26.2233 13.7265C26.2233 13.6199 26.2657 13.5175 26.3411 13.4421C26.4166 13.3667 26.5189 13.3243 26.6256 13.3243C26.7322 13.3243 26.8346 13.3667 26.91 13.4421C26.9854 13.5175 27.0278 13.6199 27.0278 13.7265C27.0271 14.404 26.7577 15.0534 26.2787 15.5325C25.7997 16.0115 25.1503 16.281 24.4728 16.2818Z" fill="#AFD1FD"/>
<path d="M24.4729 21.0276C24.0438 21.0274 23.6216 20.9192 23.2454 20.7129C22.8691 20.5066 22.5508 20.2089 22.3199 19.8472C22.0892 20.209 21.771 20.5068 21.3947 20.7132C21.0184 20.9195 20.5962 21.0276 20.1671 21.0276C19.738 21.0276 19.3158 20.9195 18.9395 20.7132C18.5632 20.5068 18.245 20.209 18.0143 19.8472C17.7835 20.209 17.4653 20.5068 17.0891 20.7132C16.7128 20.9195 16.2906 21.0276 15.8614 21.0276C15.4323 21.0276 15.0101 20.9195 14.6338 20.7132C14.2576 20.5068 13.9394 20.209 13.7086 19.8472C13.4115 20.3134 12.9711 20.6706 12.4536 20.8652C11.9362 21.0597 11.3696 21.0812 10.8389 20.9263C10.3082 20.7715 9.84205 20.4486 9.51048 20.0062C9.1789 19.5639 8.99978 19.0259 9 18.4731C9 18.3664 9.04238 18.2641 9.11782 18.1886C9.19326 18.1132 9.29558 18.0708 9.40227 18.0708C9.50896 18.0708 9.61128 18.1132 9.68672 18.1886C9.76216 18.2641 9.80454 18.3664 9.80454 18.4731C9.80189 18.7046 9.8452 18.9344 9.93199 19.1492C10.0188 19.3639 10.1473 19.5592 10.3101 19.7239C10.4729 19.8886 10.6668 20.0194 10.8805 20.1086C11.0942 20.1979 11.3235 20.2438 11.5551 20.2438C11.7867 20.2438 12.016 20.1979 12.2297 20.1086C12.4434 20.0194 12.6373 19.8886 12.8001 19.7239C12.9629 19.5592 13.0914 19.3639 13.1782 19.1492C13.265 18.9344 13.3083 18.7046 13.3057 18.4731C13.3057 18.3664 13.348 18.2641 13.4235 18.1886C13.4989 18.1132 13.6012 18.0708 13.7079 18.0708C13.8146 18.0708 13.9169 18.1132 13.9924 18.1886C14.0678 18.2641 14.1102 18.3664 14.1102 18.4731C14.1075 18.7046 14.1509 18.9344 14.2376 19.1492C14.3244 19.3639 14.453 19.5592 14.6158 19.7239C14.7786 19.8886 14.9725 20.0194 15.1862 20.1086C15.3999 20.1979 15.6292 20.2438 15.8608 20.2438C16.0923 20.2438 16.3216 20.1979 16.5353 20.1086C16.7491 20.0194 16.9429 19.8886 17.1057 19.7239C17.2686 19.5592 17.3971 19.3639 17.4839 19.1492C17.5707 18.9344 17.614 18.7046 17.6113 18.4731C17.6113 18.3664 17.6537 18.2641 17.7291 18.1886C17.8046 18.1132 17.9069 18.0708 18.0136 18.0708C18.1203 18.0708 18.2226 18.1132 18.298 18.1886C18.3735 18.2641 18.4159 18.3664 18.4159 18.4731C18.4132 18.7046 18.4565 18.9344 18.5433 19.1492C18.6301 19.3639 18.7586 19.5592 18.9214 19.7239C19.0843 19.8886 19.2781 20.0194 19.4918 20.1086C19.7055 20.1979 19.9348 20.2438 20.1664 20.2438C20.398 20.2438 20.6273 20.1979 20.841 20.1086C21.0547 20.0194 21.2486 19.8886 21.4114 19.7239C21.5742 19.5592 21.7027 19.3639 21.7895 19.1492C21.8763 18.9344 21.9196 18.7046 21.917 18.4731C21.917 18.3664 21.9594 18.2641 22.0348 18.1886C22.1102 18.1132 22.2126 18.0708 22.3193 18.0708C22.4259 18.0708 22.5283 18.1132 22.6037 18.1886C22.6791 18.2641 22.7215 18.3664 22.7215 18.4731C22.7189 18.7046 22.7622 18.9344 22.849 19.1492C22.9358 19.3639 23.0643 19.5592 23.2271 19.7239C23.3899 19.8886 23.5838 20.0194 23.7975 20.1086C24.0112 20.1979 24.2405 20.2438 24.4721 20.2438C24.7037 20.2438 24.933 20.1979 25.1467 20.1086C25.3604 20.0194 25.5542 19.8886 25.7171 19.7239C25.8799 19.5592 26.0084 19.3639 26.0952 19.1492C26.182 18.9344 26.2253 18.7046 26.2226 18.4731C26.2226 18.3664 26.265 18.2641 26.3405 18.1886C26.4159 18.1132 26.5182 18.0708 26.6249 18.0708C26.7316 18.0708 26.8339 18.1132 26.9094 18.1886C26.9848 18.2641 27.0272 18.3664 27.0272 18.4731C27.0263 19.1503 26.7569 19.7994 26.2781 20.2783C25.7992 20.7572 25.1501 21.0266 24.4729 21.0276Z" fill="#9AA1EB"/>
<path d="M19.8167 4.63642L18.2979 3.11791C18.2606 3.08053 18.2163 3.05088 18.1675 3.03065C18.1187 3.01041 18.0664 3 18.0136 3C17.9608 3 17.9085 3.01041 17.8597 3.03065C17.8109 3.05088 17.7665 3.08053 17.7292 3.11791L16.2105 4.63642C16.135 4.71187 16.0927 4.81419 16.0927 4.92088C16.0927 5.02758 16.135 5.1299 16.2105 5.20534C16.2859 5.28079 16.3883 5.32317 16.4949 5.32317C16.6016 5.32317 16.704 5.28079 16.7794 5.20534L17.6113 4.37345V8.38327C17.6113 8.48996 17.6537 8.59228 17.7291 8.66772C17.8046 8.74316 17.9069 8.78554 18.0136 8.78554C18.1203 8.78554 18.2226 8.74316 18.298 8.66772C18.3735 8.59228 18.4158 8.48996 18.4158 8.38327V4.37345L19.2477 5.20534C19.2851 5.2427 19.3294 5.27233 19.3782 5.29255C19.4271 5.31277 19.4794 5.32317 19.5322 5.32317C19.585 5.32317 19.6373 5.31277 19.6861 5.29255C19.735 5.27233 19.7793 5.2427 19.8167 5.20534C19.854 5.16799 19.8836 5.12364 19.9039 5.07483C19.9241 5.02602 19.9345 4.97371 19.9345 4.92088C19.9345 4.86805 19.9241 4.81574 19.9039 4.76693C19.8836 4.71813 19.854 4.67378 19.8167 4.63642Z" fill="#BFFDFF"/>
<path d="M11.9128 5.86854C11.8755 5.83116 11.8312 5.8015 11.7823 5.78126C11.7335 5.76103 11.6812 5.75061 11.6284 5.75061C11.5755 5.75061 11.5232 5.76103 11.4744 5.78126C11.4256 5.8015 11.3813 5.83116 11.3439 5.86854L9.82541 7.38705C9.74996 7.4625 9.70758 7.56482 9.70758 7.67151C9.70758 7.77821 9.74996 7.88053 9.82541 7.95598C9.90085 8.03142 10.0032 8.0738 10.1099 8.0738C10.2166 8.0738 10.3189 8.03142 10.3943 7.95598L11.2262 7.12408V11.1339C11.2262 11.2406 11.2686 11.3429 11.344 11.4183C11.4195 11.4938 11.5218 11.5362 11.6285 11.5362C11.7352 11.5362 11.8375 11.4938 11.9129 11.4183C11.9884 11.3429 12.0308 11.2406 12.0308 11.1339V7.12408L12.8627 7.95598C12.9385 8.02924 13.0402 8.06976 13.1456 8.06882C13.2511 8.06789 13.352 8.02556 13.4266 7.95096C13.5011 7.87636 13.5434 7.77546 13.5443 7.66998C13.5452 7.56451 13.5046 7.46291 13.4314 7.38705L11.9128 5.86854Z" fill="#BFFDFF"/>
<path d="M26.2017 7.38705L24.6831 5.86854C24.6458 5.83116 24.6015 5.8015 24.5527 5.78126C24.5038 5.76103 24.4515 5.75061 24.3987 5.75061C24.3458 5.75061 24.2935 5.76103 24.2447 5.78126C24.1959 5.8015 24.1516 5.83116 24.1142 5.86854L22.5957 7.38705C22.5573 7.42415 22.5266 7.46853 22.5055 7.51761C22.4844 7.56668 22.4733 7.61947 22.4729 7.67288C22.4724 7.72629 22.4826 7.77926 22.5028 7.82871C22.523 7.87815 22.5528 7.92307 22.5906 7.96085C22.6284 7.99862 22.6733 8.0285 22.7227 8.04874C22.7722 8.06897 22.8251 8.07916 22.8785 8.07871C22.9319 8.07826 22.9847 8.06717 23.0338 8.0461C23.0829 8.02503 23.1273 7.99439 23.1644 7.95598L23.9963 7.12408V11.1339C23.9963 11.2406 24.0387 11.3429 24.1141 11.4183C24.1896 11.4938 24.2919 11.5362 24.3986 11.5362C24.5053 11.5362 24.6076 11.4938 24.683 11.4183C24.7585 11.3429 24.8008 11.2406 24.8008 11.1339V7.12408L25.6327 7.95598C25.7082 8.03142 25.8105 8.0738 25.9172 8.0738C26.0239 8.0738 26.1262 8.03142 26.2017 7.95598C26.2771 7.88053 26.3195 7.77821 26.3195 7.67151C26.3195 7.56482 26.2771 7.4625 26.2017 7.38705Z" fill="#BFFDFF"/>
<path d="M15.8443 9.25537C15.7915 9.25534 15.7391 9.26573 15.6903 9.28593C15.6415 9.30614 15.5971 9.33577 15.5598 9.37313C15.5224 9.41049 15.4928 9.45484 15.4726 9.50366C15.4524 9.55248 15.442 9.60481 15.442 9.65764V13.0482C15.442 13.1549 15.4844 13.2572 15.5598 13.3326C15.6353 13.4081 15.7376 13.4505 15.8443 13.4505C15.951 13.4505 16.0533 13.4081 16.1287 13.3326C16.2042 13.2572 16.2466 13.1549 16.2466 13.0482V9.65787C16.2466 9.60502 16.2362 9.55269 16.216 9.50386C16.1958 9.45503 16.1662 9.41065 16.1288 9.37327C16.0915 9.3359 16.0471 9.30624 15.9983 9.28601C15.9495 9.26578 15.8971 9.25537 15.8443 9.25537Z" fill="#BFFDFF"/>
<path d="M20.183 9.25537C20.1302 9.25534 20.0779 9.26573 20.0291 9.28593C19.9802 9.30614 19.9359 9.33577 19.8985 9.37313C19.8612 9.41049 19.8315 9.45484 19.8113 9.50366C19.7911 9.55248 19.7807 9.60481 19.7808 9.65764V13.0482C19.7808 13.1549 19.8232 13.2572 19.8986 13.3326C19.974 13.4081 20.0764 13.4505 20.183 13.4505C20.2897 13.4505 20.3921 13.4081 20.4675 13.3326C20.5429 13.2572 20.5853 13.1549 20.5853 13.0482V9.65787C20.5853 9.60502 20.575 9.55269 20.5548 9.50386C20.5346 9.45503 20.5049 9.41065 20.4676 9.37327C20.4302 9.3359 20.3859 9.30624 20.337 9.28601C20.2882 9.26578 20.2359 9.25537 20.183 9.25537Z" fill="#BFFDFF"/>
</g>
</svg>
