<svg width="19" height="19" viewBox="0 0 19 19" fill="none" xmlns="http://www.w3.org/2000/svg">
<g clip-path="url(#clip0_2_383)">
<path d="M10.1345 0.281287C9.81729 -0.0359669 9.34139 -0.115308 8.94479 0.201983C8.94479 0.201983 8.86549 0.201983 8.86549 0.281287C8.23094 1.07444 2.3615 8.21294 2.3615 11.8615C2.3615 15.8273 5.53416 19 9.5 19C13.4658 19 16.6385 15.8273 16.6385 11.8615C16.6385 8.21294 10.7691 1.07444 10.1345 0.281287Z" fill="url(#paint0_linear_2_383)"/>
<path d="M7.70508 13.9842L12.4723 9.21698L11.3506 8.0953L6.58341 12.8625L7.70508 13.9842Z" fill="white"/>
<path d="M7.12049 10.2752C7.55853 10.2752 7.91364 9.92004 7.91364 9.482C7.91364 9.04395 7.55853 8.68884 7.12049 8.68884C6.68244 8.68884 6.32733 9.04395 6.32733 9.482C6.32733 9.92004 6.68244 10.2752 7.12049 10.2752Z" fill="white"/>
<path d="M11.8795 13.4479C12.3175 13.4479 12.6726 13.0928 12.6726 12.6547C12.6726 12.2167 12.3175 11.8616 11.8795 11.8616C11.4414 11.8616 11.0863 12.2167 11.0863 12.6547C11.0863 13.0928 11.4414 13.4479 11.8795 13.4479Z" fill="white"/>
</g>
<defs>
<linearGradient id="paint0_linear_2_383" x1="3.90805" y1="16.3829" x2="15.0729" y2="5.22217" gradientUnits="userSpaceOnUse">
<stop stop-color="#34CDFA"/>
<stop offset="1" stop-color="#E8D9F1"/>
</linearGradient>
<clipPath id="clip0_2_383">
<rect width="19" height="19" fill="white"/>
</clipPath>
</defs>
</svg>
